<?xml version="1.0" encoding="UTF-8" standalone="no"?>
<!-- Created with Inkscape (http://www.inkscape.org/) -->

<svg
   xmlns:dc="http://purl.org/dc/elements/1.1/"
   xmlns:cc="http://creativecommons.org/ns#"
   xmlns:rdf="http://www.w3.org/1999/02/22-rdf-syntax-ns#"
   xmlns:svg="http://www.w3.org/2000/svg"
   xmlns="http://www.w3.org/2000/svg"
   xmlns:sodipodi="http://sodipodi.sourceforge.net/DTD/sodipodi-0.dtd"
   xmlns:inkscape="http://www.inkscape.org/namespaces/inkscape"
   width="990"
   height="765"
   id="svg2"
   version="1.1"
   inkscape:version="0.48.4 r9939"
   sodipodi:docname="xanadu-logo.svg">
  <defs
     id="defs4" />
  <sodipodi:namedview
     id="base"
     pagecolor="#ffffff"
     bordercolor="#666666"
     borderopacity="1.0"
     inkscape:pageopacity="0.0"
     inkscape:pageshadow="2"
     inkscape:zoom="0.74552197"
     inkscape:cx="519.57868"
     inkscape:cy="363.8066"
     inkscape:document-units="px"
     inkscape:current-layer="layer1"
     showgrid="false"
     borderlayer="false"
     inkscape:window-width="1215"
     inkscape:window-height="1000"
     inkscape:window-x="65"
     inkscape:window-y="24"
     inkscape:window-maximized="1" />
  <metadata
     id="metadata7">
    <rdf:RDF>
      <cc:Work
         rdf:about="">
        <dc:format>image/svg+xml</dc:format>
        <dc:type
           rdf:resource="http://purl.org/dc/dcmitype/StillImage" />
        <dc:title></dc:title>
      </cc:Work>
    </rdf:RDF>
  </metadata>
  <g
     inkscape:label="Capa 1"
     inkscape:groupmode="layer"
     id="layer1"
     transform="translate(0,-287.36218)">
    <path
       sodipodi:nodetypes="ssssss"
       inkscape:connector-curvature="0"
       id="path3978"
       d="M 114.8371,641.50833 C 93.019512,613.39147 36.342932,571.31848 64.145322,578.70154 115.65501,592.3802 150.56584,563.36448 156.2832,587.9472 194.28501,751.34217 71.246662,809.91306 27.800272,771.26653 7.8089125,753.48378 57.392532,807.14295 110.15014,757.76906 123.473,745.30067 164.15417,705.06442 114.8371,641.50833 z"
       style="fill:#4d4d4d;stroke:#aad400;stroke-width:4.03983307;stroke-miterlimit:4;stroke-opacity:1;stroke-dasharray:none" />
    <path
       style="fill:#4d4d4d;stroke:#aad400;stroke-width:4.03983307;stroke-miterlimit:4;stroke-opacity:1;stroke-dasharray:none"
       d="m 195.62248,718.87868 c 21.81759,28.11686 78.49417,70.18985 50.69178,62.80679 -51.50969,-13.67866 -86.42052,15.33706 -92.13788,-9.24566 -38.00181,-163.39497 85.03654,-221.96586 128.48293,-183.31933 19.99136,17.78276 -29.59227,-35.87641 -82.34987,13.49748 -13.32286,12.46839 -54.00403,52.70463 -4.68696,116.26072 z"
       id="path3005"
       inkscape:connector-curvature="0"
       sodipodi:nodetypes="ssssss" />
    <g
       transform="matrix(2.7163309,0,0,2.7163309,-574.16649,-350.47726)"
       style="font-size:40px;font-style:normal;font-variant:normal;font-weight:normal;font-stretch:normal;line-height:125%;letter-spacing:0px;word-spacing:0px;fill:#4d4d4d;fill-opacity:1;stroke:none;font-family:Comfortaa;-inkscape-font-specification:Comfortaa"
       id="flowRoot3980">
      <path
         d="m 298.75,370 c -2.59376,2e-5 -4.8047,0.91408 -6.63281,2.74219 -1.82813,1.82814 -2.7422,4.03908 -2.74219,6.63281 -10e-6,2.59376 0.91406,4.8047 2.74219,6.63281 1.82811,1.82813 4.03905,2.74219 6.63281,2.74219 2.59373,0 4.80467,-0.91406 6.63281,-2.74219 1.8281,-1.82811 2.74217,-4.03905 2.74219,-6.63281 -2e-5,-2.59373 -0.91409,-4.80467 -2.74219,-6.63281 C 303.55467,370.91408 301.34373,370.00002 298.75,370 m 9.375,18.5625 c -2.62502,2.625 -5.75002,3.9375 -9.375,3.9375 -3.62501,0 -6.71876,-1.28125 -9.28125,-3.84375 -2.5625,-2.56249 -3.84375,-5.65624 -3.84375,-9.28125 0,-3.62498 1.28125,-6.71873 3.84375,-9.28125 2.56249,-2.56248 5.65624,-3.84372 9.28125,-3.84375 3.62498,3e-5 6.71873,1.28127 9.28125,3.84375 2.56247,2.56252 3.84372,5.65627 3.84375,9.28125 l 0,11.25 c -3e-5,0.51563 -0.18753,0.96094 -0.5625,1.33594 -0.3594,0.35937 -0.7969,0.53906 -1.3125,0.53906 -0.51565,0 -0.96096,-0.17969 -1.33594,-0.53906 -0.3594,-0.375 -0.53908,-0.82031 -0.53906,-1.33594 l 0,-2.0625"
         style="font-size:48px;fill:#4d4d4d;-inkscape-font-specification:Comfortaa"
         id="path3757" />
      <path
         d="m 315.625,368.125 c 0,-0.5156 0.17969,-0.9531 0.53906,-1.3125 0.375,-0.37497 0.82031,-0.56247 1.33594,-0.5625 0.51562,3e-5 0.95312,0.18753 1.3125,0.5625 0.37499,0.3594 0.56249,0.7969 0.5625,1.3125 l 0,1.52344 c 2.34374,-2.2656 5.15624,-3.39841 8.4375,-3.39844 3.35936,3e-5 6.22654,1.19534 8.60156,3.58594 2.3906,2.37502 3.58591,5.2422 3.58594,8.60156 l 0,12.1875 c -3e-5,0.51563 -0.18753,0.96094 -0.5625,1.33594 -0.3594,0.35937 -0.7969,0.53906 -1.3125,0.53906 -0.51565,0 -0.96096,-0.17969 -1.33594,-0.53906 -0.3594,-0.375 -0.53908,-0.82031 -0.53906,-1.33594 l 0,-12.1875 c -2e-5,-2.32811 -0.82815,-4.31248 -2.48438,-5.95313 -1.64064,-1.65622 -3.62501,-2.48435 -5.95312,-2.48437 -2.32814,2e-5 -4.32032,0.82815 -5.97656,2.48437 -1.64063,1.64065 -2.46095,3.62502 -2.46094,5.95313 l 0,12.1875 c -10e-6,0.51563 -0.18751,0.96094 -0.5625,1.33594 -0.35938,0.35937 -0.79688,0.53906 -1.3125,0.53906 -0.51563,0 -0.96094,-0.17969 -1.33594,-0.53906 -0.35937,-0.375 -0.53906,-0.82031 -0.53906,-1.33594 l 0,-22.5"
         style="font-size:48px;fill:#4d4d4d;-inkscape-font-specification:Comfortaa"
         id="path3759" />
      <path
         d="m 356.875,370 c -2.59376,2e-5 -4.8047,0.91408 -6.63281,2.74219 -1.82813,1.82814 -2.7422,4.03908 -2.74219,6.63281 -10e-6,2.59376 0.91406,4.8047 2.74219,6.63281 1.82811,1.82813 4.03905,2.74219 6.63281,2.74219 2.59373,0 4.80467,-0.91406 6.63281,-2.74219 1.8281,-1.82811 2.74217,-4.03905 2.74219,-6.63281 -2e-5,-2.59373 -0.91409,-4.80467 -2.74219,-6.63281 -1.82814,-1.82811 -4.03908,-2.74217 -6.63281,-2.74219 m 9.375,18.5625 c -2.62502,2.625 -5.75002,3.9375 -9.375,3.9375 -3.62501,0 -6.71876,-1.28125 -9.28125,-3.84375 -2.5625,-2.56249 -3.84375,-5.65624 -3.84375,-9.28125 0,-3.62498 1.28125,-6.71873 3.84375,-9.28125 2.56249,-2.56248 5.65624,-3.84372 9.28125,-3.84375 3.62498,3e-5 6.71873,1.28127 9.28125,3.84375 2.56247,2.56252 3.84372,5.65627 3.84375,9.28125 l 0,11.25 c -3e-5,0.51563 -0.18753,0.96094 -0.5625,1.33594 -0.3594,0.35937 -0.7969,0.53906 -1.3125,0.53906 -0.51565,0 -0.96096,-0.17969 -1.33594,-0.53906 -0.3594,-0.375 -0.53908,-0.82031 -0.53906,-1.33594 l 0,-2.0625"
         style="font-size:48px;fill:#4d4d4d;-inkscape-font-specification:Comfortaa"
         id="path3761" />
      <path
         d="m 396.25,379.375 c -2e-5,-2.59373 -0.91409,-4.80467 -2.74219,-6.63281 -1.82814,-1.82811 -4.03908,-2.74217 -6.63281,-2.74219 -2.59376,2e-5 -4.8047,0.91408 -6.63281,2.74219 -1.82813,1.82814 -2.7422,4.03908 -2.74219,6.63281 -10e-6,2.59376 0.91406,4.8047 2.74219,6.63281 1.82811,1.82813 4.03905,2.74219 6.63281,2.74219 2.59373,0 4.80467,-0.91406 6.63281,-2.74219 1.8281,-1.82811 2.74217,-4.03905 2.74219,-6.63281 m 0,-22.54688 c -2e-5,-0.51558 0.17966,-0.95308 0.53906,-1.3125 0.37498,-0.37496 0.82029,-0.56246 1.33594,-0.5625 0.5156,4e-5 0.9531,0.18754 1.3125,0.5625 0.37497,0.35942 0.56247,0.79692 0.5625,1.3125 l 0,22.54688 c -3e-5,3.62501 -1.28128,6.71876 -3.84375,9.28125 -2.56252,2.5625 -5.65627,3.84375 -9.28125,3.84375 -3.62501,0 -6.71876,-1.28125 -9.28125,-3.84375 -2.5625,-2.56249 -3.84375,-5.65624 -3.84375,-9.28125 0,-3.62498 1.28125,-6.71873 3.84375,-9.28125 2.56249,-2.56248 5.65624,-3.84372 9.28125,-3.84375 3.62498,3e-5 6.71873,1.28127 9.28125,3.84375 0.0312,0.0313 0.0625,0.0625 0.0937,0.0937 l 0,-13.35938"
         style="font-size:48px;fill:#4d4d4d;-inkscape-font-specification:Comfortaa"
         id="path3763" />
      <path
         d="m 428.125,390.625 c -3e-5,0.51563 -0.18753,0.96094 -0.5625,1.33594 -0.3594,0.35937 -0.7969,0.53906 -1.3125,0.53906 -0.51565,0 -0.96096,-0.17969 -1.33594,-0.53906 -0.3594,-0.375 -0.53908,-0.82031 -0.53906,-1.33594 l 0,-1.52344 c -2.34377,2.26563 -5.15627,3.39844 -8.4375,3.39844 -3.35939,0 -6.23438,-1.1875 -8.625,-3.5625 -2.375,-2.39062 -3.5625,-5.26562 -3.5625,-8.625 l 0,-12.1875 c 0,-0.5156 0.17969,-0.9531 0.53906,-1.3125 0.375,-0.37497 0.82031,-0.56247 1.33594,-0.5625 0.51562,3e-5 0.95312,0.18753 1.3125,0.5625 0.37499,0.3594 0.56249,0.7969 0.5625,1.3125 l 0,12.1875 c -10e-6,2.32813 0.82031,4.32032 2.46094,5.97656 1.65624,1.64063 3.64842,2.46094 5.97656,2.46094 2.32811,0 4.31248,-0.82031 5.95312,-2.46094 1.65623,-1.65624 2.48436,-3.64843 2.48438,-5.97656 l 0,-12.1875 c -2e-5,-0.5156 0.17966,-0.9531 0.53906,-1.3125 0.37498,-0.37497 0.82029,-0.56247 1.33594,-0.5625 0.5156,3e-5 0.9531,0.18753 1.3125,0.5625 0.37497,0.3594 0.56247,0.7969 0.5625,1.3125 l 0,22.5"
         style="font-size:48px;fill:#4d4d4d;-inkscape-font-specification:Comfortaa"
         id="path3765" />
      <path
         d="m 445,356.875 c 0,-0.51559 0.17969,-0.95309 0.53906,-1.3125 0.375,-0.37496 0.82031,-0.56246 1.33594,-0.5625 0.51562,4e-5 0.95312,0.18754 1.3125,0.5625 0.37499,0.35941 0.56249,0.79691 0.5625,1.3125 l 0,31.875 18.75,0 c 0.5156,0 0.9531,0.1875 1.3125,0.5625 0.37497,0.35938 0.56247,0.79688 0.5625,1.3125 -3e-5,0.51563 -0.18753,0.96094 -0.5625,1.33594 -0.3594,0.35937 -0.7969,0.53906 -1.3125,0.53906 l -20.625,0 c -0.51563,0 -0.96094,-0.17969 -1.33594,-0.53906 C 445.17969,391.58594 445,391.14063 445,390.625 l 0,-33.75"
         style="font-size:48px;fill:#4d4d4d;-inkscape-font-specification:Comfortaa"
         id="path3767" />
      <path
         d="m 479.21875,360.625 c -10e-6,0.64066 -0.23438,1.19534 -0.70313,1.66406 -0.45313,0.45316 -1,0.67972 -1.64062,0.67969 -0.64063,3e-5 -1.19532,-0.22653 -1.66406,-0.67969 -0.45313,-0.46872 -0.67969,-1.0234 -0.67969,-1.66406 0,-0.64059 0.22656,-1.18747 0.67969,-1.64063 0.46874,-0.46871 1.02343,-0.70309 1.66406,-0.70312 0.64062,3e-5 1.18749,0.23441 1.64062,0.70312 0.46875,0.45316 0.70312,1.00004 0.70313,1.64063 M 475,368.125 c 0,-0.5156 0.17968,-0.9531 0.53906,-1.3125 0.375,-0.37497 0.82031,-0.56247 1.33594,-0.5625 0.51562,3e-5 0.95312,0.18753 1.3125,0.5625 0.37499,0.3594 0.56249,0.7969 0.5625,1.3125 l 0,22.5 c -10e-6,0.51563 -0.18751,0.96094 -0.5625,1.33594 -0.35938,0.35937 -0.79688,0.53906 -1.3125,0.53906 -0.51563,0 -0.96094,-0.17969 -1.33594,-0.53906 C 475.17968,391.58594 475,391.14063 475,390.625 l 0,-22.5"
         style="font-size:48px;fill:#4d4d4d;-inkscape-font-specification:Comfortaa"
         id="path3769" />
      <path
         d="m 484.375,368.125 c 0,-0.5156 0.17969,-0.9531 0.53906,-1.3125 0.375,-0.37497 0.82031,-0.56247 1.33594,-0.5625 0.51562,3e-5 0.95312,0.18753 1.3125,0.5625 0.37499,0.3594 0.56249,0.7969 0.5625,1.3125 l 0,1.52344 c 2.34374,-2.2656 5.15624,-3.39841 8.4375,-3.39844 3.35936,3e-5 6.22654,1.19534 8.60156,3.58594 2.3906,2.37502 3.58591,5.2422 3.58594,8.60156 l 0,12.1875 c -3e-5,0.51563 -0.18753,0.96094 -0.5625,1.33594 -0.3594,0.35937 -0.7969,0.53906 -1.3125,0.53906 -0.51565,0 -0.96096,-0.17969 -1.33594,-0.53906 -0.3594,-0.375 -0.53908,-0.82031 -0.53906,-1.33594 l 0,-12.1875 c -2e-5,-2.32811 -0.82815,-4.31248 -2.48438,-5.95313 -1.64064,-1.65622 -3.62501,-2.48435 -5.95312,-2.48437 -2.32814,2e-5 -4.32032,0.82815 -5.97656,2.48437 -1.64063,1.64065 -2.46095,3.62502 -2.46094,5.95313 l 0,12.1875 c -10e-6,0.51563 -0.18751,0.96094 -0.5625,1.33594 -0.35938,0.35937 -0.79688,0.53906 -1.3125,0.53906 -0.51563,0 -0.96094,-0.17969 -1.33594,-0.53906 -0.35937,-0.375 -0.53906,-0.82031 -0.53906,-1.33594 l 0,-22.5"
         style="font-size:48px;fill:#4d4d4d;-inkscape-font-specification:Comfortaa"
         id="path3771" />
      <path
         d="m 536.875,390.625 c -3e-5,0.51563 -0.18753,0.96094 -0.5625,1.33594 -0.3594,0.35937 -0.7969,0.53906 -1.3125,0.53906 -0.51565,0 -0.96096,-0.17969 -1.33594,-0.53906 -0.3594,-0.375 -0.53908,-0.82031 -0.53906,-1.33594 l 0,-1.52344 c -2.34377,2.26563 -5.15627,3.39844 -8.4375,3.39844 -3.35939,0 -6.23438,-1.1875 -8.625,-3.5625 -2.375,-2.39062 -3.5625,-5.26562 -3.5625,-8.625 l 0,-12.1875 c 0,-0.5156 0.17969,-0.9531 0.53906,-1.3125 0.375,-0.37497 0.82031,-0.56247 1.33594,-0.5625 0.51562,3e-5 0.95312,0.18753 1.3125,0.5625 0.37499,0.3594 0.56249,0.7969 0.5625,1.3125 l 0,12.1875 c -10e-6,2.32813 0.82031,4.32032 2.46094,5.97656 1.65624,1.64063 3.64842,2.46094 5.97656,2.46094 2.32811,0 4.31248,-0.82031 5.95312,-2.46094 1.65623,-1.65624 2.48436,-3.64843 2.48438,-5.97656 l 0,-12.1875 c -2e-5,-0.5156 0.17966,-0.9531 0.53906,-1.3125 0.37498,-0.37497 0.82029,-0.56247 1.33594,-0.5625 0.5156,3e-5 0.9531,0.18753 1.3125,0.5625 0.37497,0.3594 0.56247,0.7969 0.5625,1.3125 l 0,22.5"
         style="font-size:48px;fill:#4d4d4d;-inkscape-font-specification:Comfortaa"
         id="path3773" />
      <path
         d="m 549.4375,379.35156 -8.36719,-10.00781 c -0.29687,-0.34373 -0.44531,-0.74998 -0.44531,-1.21875 0,-0.5156 0.17969,-0.9531 0.53906,-1.3125 0.375,-0.37497 0.82031,-0.56247 1.33594,-0.5625 0.51562,3e-5 0.97656,0.19534 1.38281,0.58594 l 7.99219,9.58593 7.99219,-9.58593 c 0.40623,-0.3906 0.86716,-0.58591 1.38281,-0.58594 0.5156,3e-5 0.9531,0.18753 1.3125,0.5625 0.37498,0.3594 0.56248,0.7969 0.5625,1.3125 -2e-5,0.46877 -0.14846,0.87502 -0.44531,1.21875 l -8.36719,10.00781 8.4375,10.125 c 0.24998,0.32813 0.37498,0.71094 0.375,1.14844 -2e-5,0.51563 -0.18752,0.96094 -0.5625,1.33594 -0.3594,0.35937 -0.7969,0.53906 -1.3125,0.53906 -0.51565,0 -0.95315,-0.1875 -1.3125,-0.5625 l -8.0625,-9.65625 -8.0625,9.65625 c -0.35938,0.375 -0.79688,0.5625 -1.3125,0.5625 -0.51563,0 -0.96094,-0.17969 -1.33594,-0.53906 -0.35937,-0.375 -0.53906,-0.82031 -0.53906,-1.33594 0,-0.4375 0.125,-0.82031 0.375,-1.14844 l 8.4375,-10.125"
         style="font-size:48px;fill:#4d4d4d;-inkscape-font-specification:Comfortaa"
         id="path3775" />
    </g>
  </g>
</svg>
